<svg width="200" height="200" viewBox="0 0 200 200" fill="none" xmlns="http://www.w3.org/2000/svg">
<path d="M191 100.375C191 147.526 145.497 185.749 98.3455 185.749C51.1944 185.749 9 147.526 9 100.375C9 53.2235 51.1944 15 98.3455 15C145.497 15 188.353 36.8595 191 100.375Z" fill="#FB381E"/>
<path d="M97.7321 47.0552C98.3636 58.1982 99.5459 89.3481 102.128 91.0154C104.71 92.6827 132.62 78.9637 133.654 76.3577C134.688 73.7517 129.967 81.8887 129.967 81.8887L126.28 86.498L119.827 92.0289L110.424 98.1335C110.424 98.1335 147.578 104.369 143.89 107.134C140.203 109.9 107.721 109.972 107.721 109.972C106.477 110.778 117.879 130.488 116.139 129.824C114.4 129.16 99.5459 118.762 99.5459 118.762C96.2712 116.095 78.7688 129.823 75.0814 133.51C71.3941 137.198 85.3433 109.971 85.3433 109.971C87.0265 106.993 63.1289 107.536 56.2197 108.622C49.3105 109.708 83.1383 98.1335 83.1383 98.1335C75.1462 89.6296 60.9512 73.0504 65.4384 76.3578C69.9256 79.6652 92.3593 93.5888 90.7094 88.6396C90.7094 88.6396 97.1007 35.9121 97.7321 47.0552Z" fill="#A8C749"/>
<path d="M154.536 68.0587C157.13 79.2713 151.492 87.559 148.572 87.559C138.458 87.559 131.699 71.4995 122.117 60.9899C112.534 50.4804 131.452 50.5085 138.458 53.6773C148.049 58.0157 151.421 61.4774 154.536 68.0587Z" fill="#FCAEB4" fill-opacity="0.53"/>
<path d="M157.793 104.168C154.869 110.773 150.765 109.283 150.014 108.85C147.413 107.348 149.112 102.686 150.014 95.4336C150.916 88.1811 157.775 91.4918 158.562 94.2896C159.638 98.1201 159.1 100.054 157.793 104.168Z" fill="#FCAEB4" fill-opacity="0.53"/>
<path fill-rule="evenodd" clip-rule="evenodd" d="M186.175 126.326C169.326 150.955 140.76 167.256 111.544 167.256C65.7552 167.256 24.7803 127.22 24.7803 77.8337C24.7803 66.0348 27.1191 54.7697 31.3035 44.4567C17.5709 59.3986 9 78.836 9 100.087C9 147.238 51.1944 185.461 98.3455 185.461C136.342 185.461 173.269 160.639 186.175 126.326Z" fill="#221B1A" fill-opacity="0.26"/>
</svg>
