<svg width="200" height="200" viewBox="0 0 200 200" fill="none" xmlns="http://www.w3.org/2000/svg">
<path d="M188 100C188 117.405 182.839 134.419 173.169 148.89C163.5 163.362 149.756 174.641 133.676 181.301C117.596 187.962 99.9024 189.705 82.8321 186.309C65.7617 182.914 50.0816 174.532 37.7746 162.225C25.4676 149.918 17.0864 134.238 13.6909 117.168C10.2954 100.098 12.0381 82.4038 18.6986 66.3239C25.3591 50.244 36.6383 36.5002 51.1098 26.8307C65.5813 17.1611 82.5952 12 100 12L100 94.6564C98.9431 94.6564 97.91 94.9698 97.0313 95.557C96.1525 96.1441 95.4676 96.9787 95.0632 97.9551C94.6587 98.9315 94.5529 100.006 94.7591 101.042C94.9653 102.079 95.4742 103.031 96.2215 103.779C96.9688 104.526 97.921 105.035 98.9575 105.241C99.9941 105.447 101.068 105.341 102.045 104.937C103.021 104.532 103.856 103.847 104.443 102.969C105.03 102.09 105.344 101.057 105.344 100H188Z" fill="#D8210D"/>
<path d="M188 100C188 117.405 182.839 134.419 173.169 148.89C163.5 163.362 149.756 174.641 133.676 181.301C117.596 187.962 99.9024 189.705 82.8321 186.309C65.7617 182.914 50.0816 174.532 37.7746 162.225C25.4676 149.918 17.0864 134.238 13.6909 117.168C10.2954 100.098 12.0381 82.4038 18.6986 66.3239C25.3591 50.244 36.6383 36.5002 51.1098 26.8307C65.5813 17.1611 82.5952 12 100 12M100 94.6564C98.9431 94.6564 97.91 94.9698 97.0312 95.557C96.1525 96.1441 95.4676 96.9787 95.0631 97.9551C94.6587 98.9315 94.5529 100.006 94.7591 101.042C94.9653 102.079 95.4742 103.031 96.2215 103.779C96.9688 104.526 97.921 105.035 98.9575 105.241C99.9941 105.447 101.068 105.341 102.045 104.937C103.021 104.532 103.856 103.848 104.443 102.969C105.03 102.09 105.344 101.057 105.344 100" stroke="#00A88F" stroke-width="8" stroke-linecap="round"/>
<path d="M103 96C100.791 96 99 97.7909 99 100C99 102.209 100.791 104 103 104V96ZM150 104C152.209 104 154 102.209 154 100C154 97.7909 152.209 96 150 96V104ZM103 104L150 104V96L103 96V104Z" fill="#00A88F"/>
<path d="M100 40L100 99" stroke="#00A88F" stroke-width="8" stroke-linecap="round"/>
<circle cx="100" cy="100" r="8" fill="#620505"/>
</svg>
